<?xml version="1.0" encoding="UTF-8" standalone="no"?>
<!-- Generator: Adobe Illustrator 19.0.0, SVG Export Plug-In . SVG Version: 6.00 Build 0)  -->

<svg
   xmlns:dc="http://purl.org/dc/elements/1.1/"
   xmlns:cc="http://creativecommons.org/ns#"
   xmlns:rdf="http://www.w3.org/1999/02/22-rdf-syntax-ns#"
   xmlns:svg="http://www.w3.org/2000/svg"
   xmlns="http://www.w3.org/2000/svg"
   xmlns:sodipodi="http://sodipodi.sourceforge.net/DTD/sodipodi-0.dtd"
   xmlns:inkscape="http://www.inkscape.org/namespaces/inkscape"
   version="1.1"
   id="Layer_1"
   x="0px"
   y="0px"
   viewBox="0 0 512 512"
   style="enable-background:new 0 0 512 512;"
   xml:space="preserve"
   inkscape:version="0.48.4 r9939"
   width="100%"
   height="100%"
   sodipodi:docname="calculator.svg"><metadata
     id="metadata3184"><rdf:RDF><cc:Work
         rdf:about=""><dc:format>image/svg+xml</dc:format><dc:type
           rdf:resource="http://purl.org/dc/dcmitype/StillImage" /></cc:Work></rdf:RDF></metadata><defs
     id="defs3182" /><sodipodi:namedview
     pagecolor="#ffffff"
     bordercolor="#666666"
     borderopacity="1"
     objecttolerance="10"
     gridtolerance="10"
     guidetolerance="10"
     inkscape:pageopacity="0"
     inkscape:pageshadow="2"
     inkscape:window-width="1535"
     inkscape:window-height="876"
     id="namedview3180"
     showgrid="false"
     inkscape:zoom="0.921875"
     inkscape:cx="256"
     inkscape:cy="256"
     inkscape:window-x="65"
     inkscape:window-y="24"
     inkscape:window-maximized="1"
     inkscape:current-layer="Layer_1" /><path
     style="fill:#37abc8"
     d="M489.739,512H22.261c-9.217,0-16.696-7.473-16.696-16.696V16.696C5.565,7.473,13.044,0,22.261,0  h467.478c9.217,0,16.696,7.473,16.696,16.696v478.609C506.435,504.527,498.956,512,489.739,512z"
     id="path3126" /><path
     style="fill:#2c89a0"
     d="M489.739,0H256v512h233.739c9.217,0,16.696-7.473,16.696-16.696V16.696  C506.435,7.473,498.956,0,489.739,0z"
     id="path3128" /><path
     style="fill:#00D7DF;"
     d="M422.957,155.826H89.043c-9.217,0-16.696-7.473-16.696-16.696V83.478  c0-9.223,7.479-16.696,16.696-16.696h333.913c9.217,0,16.696,7.473,16.696,16.696v55.652  C439.652,148.353,432.174,155.826,422.957,155.826z"
     id="path3130" /><path
     style="fill:#00B6BD;"
     d="M422.957,66.783H256v89.043h166.957c9.217,0,16.696-7.473,16.696-16.696V83.478  C439.652,74.256,432.174,66.783,422.957,66.783z"
     id="path3132" /><g
     id="g3134"><path
       style="fill:#FFFFFF;"
       d="M77.913,300.522c-3.065,0-5.565-2.494-5.565-5.565v-66.783c0-3.071,2.5-5.565,5.565-5.565h66.783   c3.065,0,5.565,2.494,5.565,5.565v66.783c0,3.071-2.5,5.565-5.565,5.565H77.913z"
       id="path3136" /><path
       style="fill:#FFFFFF;"
       d="M77.913,445.217c-3.065,0-5.565-2.494-5.565-5.565V372.87c0-3.071,2.5-5.565,5.565-5.565h66.783   c3.065,0,5.565,2.494,5.565,5.565v66.783c0,3.071-2.5,5.565-5.565,5.565H77.913z"
       id="path3138" /><path
       style="fill:#FFFFFF;"
       d="M222.609,445.217c-3.065,0-5.565-2.494-5.565-5.565V372.87c0-3.071,2.5-5.565,5.565-5.565h66.783   c3.065,0,5.565,2.494,5.565,5.565v66.783c0,3.071-2.5,5.565-5.565,5.565H222.609z"
       id="path3140" /></g><path
     style="fill:#dbdbe3"
     d="M289.391,367.304H256v77.913h33.391c3.065,0,5.565-2.494,5.565-5.565V372.87  C294.957,369.799,292.457,367.304,289.391,367.304z"
     id="path3142" /><path
     style="fill:#FFFFFF;"
     d="M222.609,300.522c-3.065,0-5.565-2.494-5.565-5.565v-66.783c0-3.071,2.5-5.565,5.565-5.565h66.783  c3.065,0,5.565,2.494,5.565,5.565v66.783c0,3.071-2.5,5.565-5.565,5.565H222.609z"
     id="path3144" /><path
     style="fill:#dbdbe3"
     d="M289.391,222.609H256v77.913h33.391c3.065,0,5.565-2.494,5.565-5.565v-66.783  C294.957,225.103,292.457,222.609,289.391,222.609z"
     id="path3146" /><path
     style="fill:#660080"
     d="M367.304,445.217c-3.065,0-5.565-2.494-5.565-5.565V228.174c0-3.071,2.5-5.565,5.565-5.565h66.783  c3.065,0,5.565,2.494,5.565,5.565v211.478c0,3.071-2.5,5.565-5.565,5.565H367.304z"
     id="path3148" /><g
     id="g3150" /><g
     id="g3152" /><g
     id="g3154" /><g
     id="g3156" /><g
     id="g3158" /><g
     id="g3160" /><g
     id="g3162" /><g
     id="g3164" /><g
     id="g3166" /><g
     id="g3168" /><g
     id="g3170" /><g
     id="g3172" /><g
     id="g3174" /><g
     id="g3176" /><g
     id="g3178" /><g
     id="g3206"
     transform="matrix(0.75843463,0,0,0.75843463,425.37896,-94.370303)"
     style="fill:#ffffff"><text
       sodipodi:linespacing="125%"
       id="text3186"
       y="309.15253"
       x="-164.88136"
       style="font-size:64px;font-style:normal;font-variant:normal;font-weight:normal;font-stretch:normal;line-height:125%;letter-spacing:0px;word-spacing:0px;fill:#ffffff;fill-opacity:1;stroke:none;font-family:Lovecraftimus;-inkscape-font-specification:Lovecraftimus"
       xml:space="preserve"><tspan
         y="309.15253"
         x="-164.88136"
         id="tspan3188"
         sodipodi:role="line">2<tspan
   id="tspan3190"
   style="font-size:45px;font-style:normal;font-variant:normal;font-weight:500;font-stretch:normal;fill:#ffffff;font-family:'M+ 1c';-inkscape-font-specification:'M+ 1c Medium'">X</tspan>10</tspan></text>
<text
       sodipodi:linespacing="125%"
       id="text3202"
       y="260.59839"
       x="-15.976408"
       style="font-size:38.06042862px;font-style:normal;font-variant:normal;font-weight:normal;font-stretch:normal;line-height:125%;letter-spacing:0px;word-spacing:0px;fill:#ffffff;fill-opacity:1;stroke:none;font-family:Lovecraftimus;-inkscape-font-specification:Lovecraftimus"
       xml:space="preserve"><tspan
         style="font-style:normal;font-variant:normal;font-weight:500;font-stretch:normal;fill:#ffffff;font-family:'M+ 1c';-inkscape-font-specification:'M+ 1c Medium'"
         y="260.59839"
         x="-15.976408"
         id="tspan3204"
         sodipodi:role="line">5</tspan></text>
</g></svg>